<svg xmlns="http://www.w3.org/2000/svg" height="40" viewBox="0 96 1000 1000" width="40"><path d="M480 416q123.333 0 238.167 49.5Q833 515 917.333 610.667q9.334 10.666 9.667 24Q927.333 648 917.333 658L824 750.667q-9 9-23.833 10-14.834 1-24.834-6.667l-114.666-86q-6.667-5.333-10-12t-3.333-14.667V510.666Q606.667 496 564.333 489.333 522 482.666 480 482.666t-84.333 6.667q-42.334 6.667-83.001 21.333v130.667q0 8-3.333 14.667t-10 12l-114.666 86q-12 9-25.167 8-13.167-1-23.5-11.333L42.667 658q-10-10-9.667-23.333.333-13.334 9.667-24 84-95.667 199-145.167T480 416ZM242.667 538Q207 555.666 175 579.833 143 604 112 632l51.333 52.667 79.334-59.333V538ZM714 535.999v85.334L796 684l52-51.333Q817 602 783.667 578.666 750.333 555.333 714 535.999ZM242.667 538ZM714 535.999Z"/></svg>