<svg xmlns="http://www.w3.org/2000/svg" height="40" viewBox="-200 -70 1400 1400" width="40"><path d="m694 694.667-48-48q18.667-25 27.667-55t9-61.667h66.666q0 45.333-14.333 87.167-14.334 41.833-41 77.5ZM467.333 467.333Zm102 102L510 510.667V283.333q0-17.283-11.692-28.975t-28.975-11.692q-17.283 0-28.975 11.692t-11.692 28.975v145.334L362 362.001v-78.668q0-44.722 31.294-76.028 31.294-31.305 76-31.305t76.039 31.305q31.333 31.306 31.333 76.028V530q0 9-1.833 20-1.834 11-5.5 19.333ZM436 936V804.333q-105.333-12-176-90.333t-70.667-184h66.666q0 88.333 62.167 149.167Q380.333 740 469.333 740q36.667 0 70.24-11.725 33.574-11.725 61.094-32.942L648.333 743Q618 768 581.157 783.711q-36.843 15.712-78.491 20.622V936H436Zm382.001 64.67L42.666 225.332l44-43.999L862 956.667l-43.999 44.003Z"/></svg>