<svg xmlns="http://www.w3.org/2000/svg" height="39" viewBox="-250 -90 1400 1400" width="39"><path d="M880 786 720 626v96.334l-66.666-66.666V322.666H320.332L253.666 256h399.668q27 0 46.833 19.833T720 322.666V526l160-160v420Zm-40.666 243.33L34.667 224.666 81.333 178 886 982.667l-46.666 46.663ZM488.666 491ZM392 582.666ZM159.333 256 226 322.666h-79.334v506.668h506.668V750L720 816.667v12.667q0 27-19.833 46.833T653.334 896H146.666q-27 0-46.833-19.833T80 829.334V322.666q0-27 19.833-46.833T146.666 256h12.667Z"/></svg>